<mxfile host="app.diagrams.net" agent="Mozilla/5.0 (Windows NT 10.0; Win64; x64) AppleWebKit/537.36 (KHTML, like Gecko) Chrome/128.0.0.0 Safari/537.36 OPR/114.0.0.0" version="24.8.0">
  <diagram name="PÃ¡gina-1" id="p-sFsIcMAcQgl3sg1ada">
    <mxGraphModel dx="1633" dy="796" grid="1" gridSize="10" guides="1" tooltips="1" connect="1" arrows="1" fold="1" page="1" pageScale="1" pageWidth="827" pageHeight="1169" math="0" shadow="0">
      <root>
        <mxCell id="0" />
        <mxCell id="1" parent="0" />
        <mxCell id="0RVl3KVU4fBex6cBu_6I-1" value="persona" style="rounded=0;whiteSpace=wrap;html=1;" vertex="1" parent="1">
          <mxGeometry x="300" y="180" width="120" height="60" as="geometry" />
        </mxCell>
        <mxCell id="0RVl3KVU4fBex6cBu_6I-8" style="edgeStyle=orthogonalEdgeStyle;rounded=0;orthogonalLoop=1;jettySize=auto;html=1;exitX=0;exitY=1;exitDx=0;exitDy=0;entryX=0.5;entryY=0;entryDx=0;entryDy=0;" edge="1" parent="1" source="0RVl3KVU4fBex6cBu_6I-2" target="0RVl3KVU4fBex6cBu_6I-7">
          <mxGeometry relative="1" as="geometry" />
        </mxCell>
        <mxCell id="0RVl3KVU4fBex6cBu_6I-10" style="edgeStyle=orthogonalEdgeStyle;rounded=0;orthogonalLoop=1;jettySize=auto;html=1;exitX=1;exitY=1;exitDx=0;exitDy=0;entryX=0.5;entryY=0;entryDx=0;entryDy=0;" edge="1" parent="1" source="0RVl3KVU4fBex6cBu_6I-2" target="0RVl3KVU4fBex6cBu_6I-9">
          <mxGeometry relative="1" as="geometry" />
        </mxCell>
        <mxCell id="0RVl3KVU4fBex6cBu_6I-2" value="o" style="ellipse;whiteSpace=wrap;html=1;aspect=fixed;" vertex="1" parent="1">
          <mxGeometry x="330" y="260" width="60" height="60" as="geometry" />
        </mxCell>
        <mxCell id="0RVl3KVU4fBex6cBu_6I-4" value="" style="endArrow=none;html=1;rounded=0;exitX=0.333;exitY=0.033;exitDx=0;exitDy=0;exitPerimeter=0;" edge="1" parent="1" source="0RVl3KVU4fBex6cBu_6I-2">
          <mxGeometry width="50" height="50" relative="1" as="geometry">
            <mxPoint x="300" y="290" as="sourcePoint" />
            <mxPoint x="350" y="240" as="targetPoint" />
          </mxGeometry>
        </mxCell>
        <mxCell id="0RVl3KVU4fBex6cBu_6I-6" value="" style="endArrow=none;html=1;rounded=0;exitX=1;exitY=0;exitDx=0;exitDy=0;" edge="1" parent="1" source="0RVl3KVU4fBex6cBu_6I-2">
          <mxGeometry width="50" height="50" relative="1" as="geometry">
            <mxPoint x="330" y="290" as="sourcePoint" />
            <mxPoint x="380" y="240" as="targetPoint" />
          </mxGeometry>
        </mxCell>
        <mxCell id="0RVl3KVU4fBex6cBu_6I-7" value="cliente&lt;div&gt;&lt;br&gt;&lt;/div&gt;" style="rounded=0;whiteSpace=wrap;html=1;" vertex="1" parent="1">
          <mxGeometry x="200" y="360" width="120" height="60" as="geometry" />
        </mxCell>
        <mxCell id="0RVl3KVU4fBex6cBu_6I-31" style="edgeStyle=orthogonalEdgeStyle;rounded=0;orthogonalLoop=1;jettySize=auto;html=1;exitX=0.75;exitY=0;exitDx=0;exitDy=0;entryX=0.5;entryY=1;entryDx=0;entryDy=0;" edge="1" parent="1" source="0RVl3KVU4fBex6cBu_6I-9" target="0RVl3KVU4fBex6cBu_6I-30">
          <mxGeometry relative="1" as="geometry" />
        </mxCell>
        <mxCell id="0RVl3KVU4fBex6cBu_6I-9" value="empleado" style="rounded=0;whiteSpace=wrap;html=1;" vertex="1" parent="1">
          <mxGeometry x="420" y="360" width="120" height="60" as="geometry" />
        </mxCell>
        <mxCell id="0RVl3KVU4fBex6cBu_6I-11" value="pedido" style="rounded=0;whiteSpace=wrap;html=1;" vertex="1" parent="1">
          <mxGeometry x="420" y="590" width="120" height="60" as="geometry" />
        </mxCell>
        <mxCell id="0RVl3KVU4fBex6cBu_6I-14" style="edgeStyle=orthogonalEdgeStyle;rounded=0;orthogonalLoop=1;jettySize=auto;html=1;exitX=0.5;exitY=1;exitDx=0;exitDy=0;entryX=0.5;entryY=0;entryDx=0;entryDy=0;" edge="1" parent="1" source="0RVl3KVU4fBex6cBu_6I-13" target="0RVl3KVU4fBex6cBu_6I-11">
          <mxGeometry relative="1" as="geometry" />
        </mxCell>
        <mxCell id="0RVl3KVU4fBex6cBu_6I-15" style="edgeStyle=orthogonalEdgeStyle;rounded=0;orthogonalLoop=1;jettySize=auto;html=1;exitX=0.5;exitY=0;exitDx=0;exitDy=0;entryX=0.5;entryY=1;entryDx=0;entryDy=0;" edge="1" parent="1" source="0RVl3KVU4fBex6cBu_6I-13" target="0RVl3KVU4fBex6cBu_6I-9">
          <mxGeometry relative="1" as="geometry" />
        </mxCell>
        <mxCell id="0RVl3KVU4fBex6cBu_6I-13" value="realiza" style="rhombus;whiteSpace=wrap;html=1;" vertex="1" parent="1">
          <mxGeometry x="440" y="470" width="80" height="80" as="geometry" />
        </mxCell>
        <mxCell id="0RVl3KVU4fBex6cBu_6I-20" style="edgeStyle=orthogonalEdgeStyle;rounded=0;orthogonalLoop=1;jettySize=auto;html=1;exitX=0.5;exitY=0;exitDx=0;exitDy=0;entryX=0.5;entryY=1;entryDx=0;entryDy=0;" edge="1" parent="1" source="0RVl3KVU4fBex6cBu_6I-17" target="0RVl3KVU4fBex6cBu_6I-18">
          <mxGeometry relative="1" as="geometry" />
        </mxCell>
        <mxCell id="0RVl3KVU4fBex6cBu_6I-17" value="productos" style="rounded=0;whiteSpace=wrap;html=1;" vertex="1" parent="1">
          <mxGeometry x="420" y="810" width="120" height="60" as="geometry" />
        </mxCell>
        <mxCell id="0RVl3KVU4fBex6cBu_6I-19" style="edgeStyle=orthogonalEdgeStyle;rounded=0;orthogonalLoop=1;jettySize=auto;html=1;exitX=0.5;exitY=0;exitDx=0;exitDy=0;entryX=0.5;entryY=1;entryDx=0;entryDy=0;" edge="1" parent="1" source="0RVl3KVU4fBex6cBu_6I-18" target="0RVl3KVU4fBex6cBu_6I-11">
          <mxGeometry relative="1" as="geometry" />
        </mxCell>
        <mxCell id="0RVl3KVU4fBex6cBu_6I-18" value="utiliza" style="rhombus;whiteSpace=wrap;html=1;" vertex="1" parent="1">
          <mxGeometry x="440" y="690" width="80" height="80" as="geometry" />
        </mxCell>
        <mxCell id="0RVl3KVU4fBex6cBu_6I-23" style="edgeStyle=orthogonalEdgeStyle;rounded=0;orthogonalLoop=1;jettySize=auto;html=1;exitX=1;exitY=0.5;exitDx=0;exitDy=0;entryX=0;entryY=0.5;entryDx=0;entryDy=0;" edge="1" parent="1" source="0RVl3KVU4fBex6cBu_6I-21" target="0RVl3KVU4fBex6cBu_6I-22">
          <mxGeometry relative="1" as="geometry" />
        </mxCell>
        <mxCell id="0RVl3KVU4fBex6cBu_6I-24" style="edgeStyle=orthogonalEdgeStyle;rounded=0;orthogonalLoop=1;jettySize=auto;html=1;exitX=0;exitY=0.5;exitDx=0;exitDy=0;entryX=1;entryY=0.5;entryDx=0;entryDy=0;" edge="1" parent="1" source="0RVl3KVU4fBex6cBu_6I-21" target="0RVl3KVU4fBex6cBu_6I-11">
          <mxGeometry relative="1" as="geometry" />
        </mxCell>
        <mxCell id="0RVl3KVU4fBex6cBu_6I-21" value="vuelve" style="rhombus;whiteSpace=wrap;html=1;" vertex="1" parent="1">
          <mxGeometry x="580" y="580" width="80" height="80" as="geometry" />
        </mxCell>
        <mxCell id="0RVl3KVU4fBex6cBu_6I-22" value="venta" style="rounded=0;whiteSpace=wrap;html=1;" vertex="1" parent="1">
          <mxGeometry x="690" y="590" width="120" height="60" as="geometry" />
        </mxCell>
        <mxCell id="0RVl3KVU4fBex6cBu_6I-25" value="stock" style="rounded=0;whiteSpace=wrap;html=1;" vertex="1" parent="1">
          <mxGeometry x="30" y="870" width="120" height="60" as="geometry" />
        </mxCell>
        <mxCell id="0RVl3KVU4fBex6cBu_6I-27" style="edgeStyle=orthogonalEdgeStyle;rounded=0;orthogonalLoop=1;jettySize=auto;html=1;entryX=0.5;entryY=0;entryDx=0;entryDy=0;" edge="1" parent="1" source="0RVl3KVU4fBex6cBu_6I-26" target="0RVl3KVU4fBex6cBu_6I-1">
          <mxGeometry relative="1" as="geometry" />
        </mxCell>
        <mxCell id="0RVl3KVU4fBex6cBu_6I-26" value="id,telefono,nombre,apellido" style="ellipse;whiteSpace=wrap;html=1;" vertex="1" parent="1">
          <mxGeometry x="160" y="49" width="400" height="90" as="geometry" />
        </mxCell>
        <mxCell id="0RVl3KVU4fBex6cBu_6I-28" value="preferencia" style="ellipse;whiteSpace=wrap;html=1;" vertex="1" parent="1">
          <mxGeometry x="30" y="360" width="120" height="80" as="geometry" />
        </mxCell>
        <mxCell id="0RVl3KVU4fBex6cBu_6I-29" style="edgeStyle=orthogonalEdgeStyle;rounded=0;orthogonalLoop=1;jettySize=auto;html=1;entryX=0.008;entryY=0.617;entryDx=0;entryDy=0;entryPerimeter=0;" edge="1" parent="1" source="0RVl3KVU4fBex6cBu_6I-28" target="0RVl3KVU4fBex6cBu_6I-7">
          <mxGeometry relative="1" as="geometry" />
        </mxCell>
        <mxCell id="0RVl3KVU4fBex6cBu_6I-30" value="lejajo,gmail,turno" style="ellipse;whiteSpace=wrap;html=1;" vertex="1" parent="1">
          <mxGeometry x="560" y="220" width="120" height="80" as="geometry" />
        </mxCell>
        <mxCell id="0RVl3KVU4fBex6cBu_6I-32" value="salario" style="rounded=0;whiteSpace=wrap;html=1;" vertex="1" parent="1">
          <mxGeometry x="700" y="360" width="120" height="60" as="geometry" />
        </mxCell>
        <mxCell id="0RVl3KVU4fBex6cBu_6I-34" style="edgeStyle=orthogonalEdgeStyle;rounded=0;orthogonalLoop=1;jettySize=auto;html=1;exitX=0;exitY=0.5;exitDx=0;exitDy=0;entryX=1;entryY=0.5;entryDx=0;entryDy=0;" edge="1" parent="1" source="0RVl3KVU4fBex6cBu_6I-33" target="0RVl3KVU4fBex6cBu_6I-9">
          <mxGeometry relative="1" as="geometry" />
        </mxCell>
        <mxCell id="0RVl3KVU4fBex6cBu_6I-35" style="edgeStyle=orthogonalEdgeStyle;rounded=0;orthogonalLoop=1;jettySize=auto;html=1;exitX=1;exitY=0.5;exitDx=0;exitDy=0;entryX=0;entryY=0.5;entryDx=0;entryDy=0;" edge="1" parent="1" source="0RVl3KVU4fBex6cBu_6I-33" target="0RVl3KVU4fBex6cBu_6I-32">
          <mxGeometry relative="1" as="geometry" />
        </mxCell>
        <mxCell id="0RVl3KVU4fBex6cBu_6I-33" value="recibe" style="rhombus;whiteSpace=wrap;html=1;" vertex="1" parent="1">
          <mxGeometry x="580" y="350" width="80" height="80" as="geometry" />
        </mxCell>
        <mxCell id="0RVl3KVU4fBex6cBu_6I-37" style="edgeStyle=orthogonalEdgeStyle;rounded=0;orthogonalLoop=1;jettySize=auto;html=1;entryX=0.5;entryY=0;entryDx=0;entryDy=0;" edge="1" parent="1" source="0RVl3KVU4fBex6cBu_6I-36" target="0RVl3KVU4fBex6cBu_6I-32">
          <mxGeometry relative="1" as="geometry" />
        </mxCell>
        <mxCell id="0RVl3KVU4fBex6cBu_6I-36" value="horas,precioHora" style="ellipse;whiteSpace=wrap;html=1;" vertex="1" parent="1">
          <mxGeometry x="700" y="220" width="120" height="80" as="geometry" />
        </mxCell>
        <mxCell id="0RVl3KVU4fBex6cBu_6I-39" style="edgeStyle=orthogonalEdgeStyle;rounded=0;orthogonalLoop=1;jettySize=auto;html=1;entryX=0.5;entryY=1;entryDx=0;entryDy=0;" edge="1" parent="1" source="0RVl3KVU4fBex6cBu_6I-38" target="0RVl3KVU4fBex6cBu_6I-22">
          <mxGeometry relative="1" as="geometry" />
        </mxCell>
        <mxCell id="0RVl3KVU4fBex6cBu_6I-38" value="id,monto" style="ellipse;whiteSpace=wrap;html=1;" vertex="1" parent="1">
          <mxGeometry x="690" y="700" width="120" height="80" as="geometry" />
        </mxCell>
        <mxCell id="0RVl3KVU4fBex6cBu_6I-41" style="edgeStyle=orthogonalEdgeStyle;rounded=0;orthogonalLoop=1;jettySize=auto;html=1;exitX=1;exitY=0.5;exitDx=0;exitDy=0;entryX=0;entryY=0.5;entryDx=0;entryDy=0;" edge="1" parent="1" source="0RVl3KVU4fBex6cBu_6I-40" target="0RVl3KVU4fBex6cBu_6I-17">
          <mxGeometry relative="1" as="geometry" />
        </mxCell>
        <mxCell id="0RVl3KVU4fBex6cBu_6I-40" value="id,nombre,descripcion" style="ellipse;whiteSpace=wrap;html=1;" vertex="1" parent="1">
          <mxGeometry x="270" y="800" width="120" height="80" as="geometry" />
        </mxCell>
        <mxCell id="0RVl3KVU4fBex6cBu_6I-43" style="edgeStyle=orthogonalEdgeStyle;rounded=0;orthogonalLoop=1;jettySize=auto;html=1;" edge="1" parent="1" source="0RVl3KVU4fBex6cBu_6I-42" target="0RVl3KVU4fBex6cBu_6I-11">
          <mxGeometry relative="1" as="geometry">
            <Array as="points">
              <mxPoint x="400" y="690" />
              <mxPoint x="400" y="650" />
            </Array>
          </mxGeometry>
        </mxCell>
        <mxCell id="0RVl3KVU4fBex6cBu_6I-42" value="id,nombre,montoTotal,medio de pago" style="ellipse;whiteSpace=wrap;html=1;" vertex="1" parent="1">
          <mxGeometry x="260" y="650" width="120" height="80" as="geometry" />
        </mxCell>
        <mxCell id="0RVl3KVU4fBex6cBu_6I-45" style="edgeStyle=orthogonalEdgeStyle;rounded=0;orthogonalLoop=1;jettySize=auto;html=1;entryX=0.5;entryY=1;entryDx=0;entryDy=0;" edge="1" parent="1" source="0RVl3KVU4fBex6cBu_6I-44" target="0RVl3KVU4fBex6cBu_6I-25">
          <mxGeometry relative="1" as="geometry" />
        </mxCell>
        <mxCell id="0RVl3KVU4fBex6cBu_6I-44" value="id,nombre,cantidad" style="ellipse;whiteSpace=wrap;html=1;" vertex="1" parent="1">
          <mxGeometry x="30" y="950" width="120" height="80" as="geometry" />
        </mxCell>
        <mxCell id="0RVl3KVU4fBex6cBu_6I-47" style="edgeStyle=orthogonalEdgeStyle;rounded=0;orthogonalLoop=1;jettySize=auto;html=1;entryX=0;entryY=0.5;entryDx=0;entryDy=0;" edge="1" parent="1" source="0RVl3KVU4fBex6cBu_6I-46" target="0RVl3KVU4fBex6cBu_6I-11">
          <mxGeometry relative="1" as="geometry" />
        </mxCell>
        <mxCell id="0RVl3KVU4fBex6cBu_6I-46" value="elige" style="rhombus;whiteSpace=wrap;html=1;" vertex="1" parent="1">
          <mxGeometry x="220" y="545" width="80" height="80" as="geometry" />
        </mxCell>
        <mxCell id="0RVl3KVU4fBex6cBu_6I-48" style="edgeStyle=orthogonalEdgeStyle;rounded=0;orthogonalLoop=1;jettySize=auto;html=1;exitX=0.5;exitY=0;exitDx=0;exitDy=0;entryX=0.558;entryY=1.017;entryDx=0;entryDy=0;entryPerimeter=0;" edge="1" parent="1" source="0RVl3KVU4fBex6cBu_6I-46" target="0RVl3KVU4fBex6cBu_6I-7">
          <mxGeometry relative="1" as="geometry">
            <Array as="points">
              <mxPoint x="260" y="421" />
            </Array>
          </mxGeometry>
        </mxCell>
      </root>
    </mxGraphModel>
  </diagram>
</mxfile>
